<?xml version="1.0" standalone="no"?><!DOCTYPE svg PUBLIC "-//W3C//DTD SVG 1.1//EN" "http://www.w3.org/Graphics/SVG/1.1/DTD/svg11.dtd"><svg t="1591667190947" class="icon" viewBox="0 0 1024 1024" version="1.1" xmlns="http://www.w3.org/2000/svg" p-id="47245" width="32" height="32" xmlns:xlink="http://www.w3.org/1999/xlink"><defs><style type="text/css"></style></defs><path d="M29.696 512C29.696 245.248 245.76 29.184 512 29.184s482.304 216.064 482.304 482.304V512A481.792 481.792 0 0 1 512 994.304C245.248 994.304 29.696 778.24 29.696 512z m514.56 0l168.448-168.448a21.923 21.923 0 0 0 0-31.232l-1.024-1.024a21.923 21.923 0 0 0-31.232 0L512 480.256l-168.448-168.96a21.923 21.923 0 0 0-31.232 0l-1.024 1.024a21.923 21.923 0 0 0 0 31.232l168.448 168.96L311.296 680.96a21.923 21.923 0 0 0 0 31.232l1.024 1.024a21.923 21.923 0 0 0 31.232 0L512 544.768l168.448 168.448a21.923 21.923 0 0 0 31.232 0l1.024-1.024a21.923 21.923 0 0 0 0-31.232L544.256 512z" fill="#ffffff" p-id="47246"></path></svg>