<?xml version="1.0" standalone="no"?><!DOCTYPE svg PUBLIC "-//W3C//DTD SVG 1.1//EN" "http://www.w3.org/Graphics/SVG/1.1/DTD/svg11.dtd"><svg t="1591666667642" class="icon" viewBox="0 0 1063 1024" version="1.1" xmlns="http://www.w3.org/2000/svg" p-id="39884" width="33.21875" height="32" xmlns:xlink="http://www.w3.org/1999/xlink"><defs><style type="text/css"></style></defs><path d="M118.13682 275.620385A115.175261 115.175261 0 0 0 0.018522 389.836679v240.204737a116.035025 116.035025 0 0 0 118.118298 118.118298h102.510281l224.431381 232.334592a122.350981 122.350981 0 0 0 82.669581 43.318861 49.932427 49.932427 0 0 0 23.610433-3.935072 70.136873 70.136873 0 0 0 39.383788-62.994222V681.197353L169.325825 275.620385z m933.207305 602.462843L980.47976 811.153935a610.233784 610.233784 0 0 0 82.669582-299.263886 598.527771 598.527771 0 0 0-145.696871-389.836679 39.086178 39.086178 0 0 0-59.059149 51.189005 537.286145 537.286145 0 0 1 125.988442 338.647674 496.182829 496.182829 0 0 1-62.994221 240.204737L807.204317 641.846632a495.09159 495.09159 0 0 0 19.8407-129.956583 419.961475 419.961475 0 0 0-82.669582-252.009952 35.316445 35.316445 0 0 0-55.124077-7.870144 35.680191 35.680191 0 0 0-7.870144 55.124077 353.36286 353.36286 0 0 1 66.929293 204.756019 346.782361 346.782361 0 0 1-7.870144 66.929294l-149.631943-141.761799V70.864365A62.365932 62.365932 0 0 0 551.424631 7.870144c-31.513645-11.805216-70.864365 0-106.313082 39.383789l-129.956582 129.956582-169.307303-165.339163a38.986975 38.986975 0 0 0-55.124077 55.124077l905.661801 866.377215a38.061075 38.061075 0 0 0 55.124077 0 38.061075 38.061075 0 0 0-0.132272-55.289416z" p-id="39885" fill="#2c2c2c"></path></svg>