<?xml version="1.0" standalone="no"?><!DOCTYPE svg PUBLIC "-//W3C//DTD SVG 1.1//EN" "http://www.w3.org/Graphics/SVG/1.1/DTD/svg11.dtd"><svg t="1591666634803" class="icon" viewBox="0 0 1024 1024" version="1.1" xmlns="http://www.w3.org/2000/svg" p-id="39613" width="32" height="32" xmlns:xlink="http://www.w3.org/1999/xlink"><defs><style type="text/css"></style></defs><path d="M808.628838 390.165164c-8.156774-13.5936-16.312524-27.188222-27.187199-38.062897l-8.156774-8.156774c-10.874675-10.874675-27.188222-10.874675-38.062897 0-10.874675 10.874675-10.874675 27.188222 0 38.062897l8.156773 8.156774c8.156774 8.156774 13.5936 16.312524 19.031449 27.188222l2.718924 2.718925c51.656497 78.844719 40.781822 149.532665-32.625048 228.377384-10.874675 10.874675-10.874675 27.188222 0 38.062897 5.437849 5.437849 10.874675 8.156774 19.031449 8.156774s13.5936-2.718925 19.031449-8.156774c89.719394-97.877191 103.312994-198.47126 38.061874-296.347428z" fill="#ffffff" p-id="39614"></path><path d="M903.786081 232.475725c-8.156774-10.874675-16.312524-19.031449-24.469298-24.469297-10.874675-10.874675-27.188222-10.874675-38.062897 0-10.874675 10.874675-10.874675 27.188222 0 38.062897l5.437849 5.437849 13.5936 13.5936c13.5936 19.031449 29.906124 35.343973 43.500746 57.094346 103.312994 154.970514 81.563644 304.502156-62.532195 454.03482-10.874675 10.874675-10.874675 27.188222 0 38.062897 5.437849 5.437849 10.874675 8.156774 19.031449 8.156774s13.5936-2.718925 19.031448-8.156774c160.40734-165.845189 184.876638-345.283977 70.687946-519.28594-16.312524-24.468275-32.625048-43.499723-46.218648-62.531172zM539.470655 50.318012c-29.906124-13.5936-67.969021-5.437849-97.876168 21.750374L234.967476 248.789273h-97.876168c-73.40687 0-133.220141 62.532195-133.220141 133.220141v266.440281c0 76.125795 59.813271 133.220141 133.220141 133.220141h84.281545l220.220611 174.001963c21.750373 16.312524 46.218648 24.469298 67.969021 24.469297 10.874675 0 24.469298-2.718925 32.625048-8.156773 29.906124-13.5936 46.219671-46.219671 46.219671-89.719395V142.756331c0.001023-43.499723-16.311501-78.843696-48.936549-92.438319z m-5.437849 834.663794c0 21.750373-5.437849 35.343973-16.312524 40.781822s-27.187199 0-43.500747-10.874675L240.405325 730.011292h-103.312994c-43.500746 0-78.844719-35.343973-78.844719-78.844719V384.727315c0-43.500746 35.343973-78.844719 78.844719-78.844719H253.998925L474.219535 118.288057c16.312524-13.5936 29.906124-19.031449 40.781822-13.5936 10.874675 5.437849 19.031449 21.750373 19.031449 43.500747v736.786602z" fill="#ffffff" p-id="39615"></path></svg>